HIERARCHY
ROOT Hips
{
	OFFSET -0.255980812423 -22.9265508237 2.34844033744
	CHANNELS 6 Xposition Yposition Zposition Zrotation Yrotation Xrotation
	JOINT LeftHip
	{
		OFFSET 6.5768664497 -8.96636232643 -0.84198325116
		CHANNELS 3 Zrotation Yrotation Xrotation
		JOINT LeftKnee
		{
			OFFSET 3.55933660268 -36.8674513657 -0.102446375667
			CHANNELS 3 Zrotation Yrotation Xrotation
			JOINT LeftFoot
			{
				OFFSET -1.39171575652 -38.7514746652 -4.14774324439
				CHANNELS 3 Zrotation Yrotation Xrotation
				End LeftToe
				{
                                  OFFSET 2.62952419479 -5.42722022749 11.7958810321
				}
			}
		}
	}
	JOINT RightHip
	{
		OFFSET -6.40269555161 -8.85238810407 -0.650302468296
		CHANNELS 3 Zrotation Yrotation Xrotation
		JOINT RightKnee
		{
			OFFSET -3.86591909836 -37.6168407253 -0.586649507865
			CHANNELS 3 Zrotation Yrotation Xrotation
			JOINT RightFoot
			{
				OFFSET 1.61360134218 -38.7761916221 -3.98945284598
				CHANNELS 3 Zrotation Yrotation Xrotation
				End RightToe
				{
                                        OFFSET -2.39172278931 -4.72872018644 12.1912162488
				}
			}
		}
	}
	JOINT Waist
	{
		OFFSET -0.263292414623 10.8016597471 -2.43628871856
		CHANNELS 3 Zrotation Yrotation Xrotation
		JOINT Spine
		{
			OFFSET 0.643584127379 14.0835544469 0.419210252379
			CHANNELS 3 Zrotation Yrotation Xrotation
                        JOINT Chest
                        {
                            OFFSET 0.133442024286 5.43924000013 2.26295779162
                            CHANNELS 3 Zrotation Yrotation Xrotation
                            JOINT Neck
                            {
                                OFFSET -0.371426517392 21.2711519749 -3.91949836265
                                CHANNELS 3 Zrotation Yrotation Xrotation
                                End Head
                                {
                                        OFFSET 0.121023251135 26.8870238736 2.0289167937
                                }
                            }
                            JOINT LeftInnerShoulder
                            {
                                OFFSET 7.80987967271 12.0248034519 -3.10370248123
                                CHANNELS 3 Zrotation Yrotation Xrotation
                                JOINT LeftShoulder
                                {
                                        OFFSET 9.21188962483 2.90422694214 -0.858345129326
                                        CHANNELS 3 Zrotation Yrotation Xrotation
                                        JOINT LeftElbow
                                        {
                                                OFFSET 25.433761678 -1.23494194579 -2.52906519149
                                                CHANNELS 3 Zrotation Yrotation Xrotation
                                                End LeftWrist
                                                {
                                                        OFFSET 24.4044009463 0.788639732417 -0.196553345788
                                                }
                                        }
                                }
                            }
                            JOINT RightInnerShoulder
                            {
                                OFFSET -8.17054197095 11.6899308867 -3.55092664691
                                CHANNELS 3 Zrotation Yrotation Xrotation
                                JOINT RightShoulder
                                {
                                        OFFSET -9.71177422235 3.1783974832 -0.86671839421
                                        CHANNELS 3 Zrotation Yrotation Xrotation
                                        JOINT RightElbow
                                        {
                                                OFFSET -24.7386409666 -1.27745408803 -1.96163634717
                                                CHANNELS 3 Zrotation Yrotation Xrotation
                                                End RightWrist
                                                {
                                                        OFFSET -24.9255795176 0.599564738442 -0.650340218677
                                                }
                                        }
                                }
                            }
                        }
                }
            }
}
MOTION
Frames: 10
Frame Time: 0.0333333333333
281.09447 89.94118 0.56145 3.99413 8.30168 -38.39979 40.89871 26.27141 -40.73579 -10.04094 -5.76222 55.45024 -11.45252 4.19882 10.58033 -24.07290 -35.91941 -67.65414 -0.21916 -13.31336 69.73490 26.65797 -19.53778 34.84083 -1.16254 0.00974 45.34800 -12.37996 5.99841 -7.53579 -3.71563 1.38281 1.45753 -10.58204 -6.61579 2.53961 -4.23885 2.77837 -2.40217 -26.15589 -20.11149 -12.49640 85.97369 -61.89910 -74.33858 -12.36161 -2.87071 -0.21963 17.07164 0.11400 -19.33040 -74.18554 45.20375 -72.50481
289.62871 87.45936 0.53324 8.55440 29.73387 -24.91586 19.19004 1.53125 -48.31941 -3.10776 3.00034 65.46725 3.35631 14.31245 2.21055 -7.18023 -0.34955 -65.66388 -1.45066 -4.72578 70.66708 13.67193 -23.24508 6.97193 -4.47148 -3.08400 35.55908 -12.69092 1.24271 -13.66819 -5.60824 -3.71942 5.49222 -6.15623 -12.00605 -1.19936 -10.72376 4.36780 -6.47974 -43.26620 -23.33211 2.13665 94.05640 -52.06347 -85.88643 -13.60771 -5.20189 -8.92449 12.49767 5.96850 -17.48015 -59.15516 24.08854 -66.96913
293.30885 82.92460 0.69639 2.95374 44.09233 -24.46571 6.33230 -11.62072 -41.52515 -8.91914 -5.28242 65.70678 3.22945 4.39150 15.11223 -1.26611 -3.64081 -52.71267 -9.67675 -17.29311 66.59454 2.52419 -27.66714 14.67171 0.94675 -5.15299 34.63284 -12.97902 -1.80017 -15.57277 -5.12380 -4.07627 5.69930 -8.99123 -23.86922 1.68693 2.11015 2.87016 -6.42601 -52.84009 -31.88159 -0.19766 94.08613 -50.77590 -66.20463 -25.98885 -8.95068 -11.12564 12.86508 3.32827 -27.87457 -57.93473 14.61541 -47.40876
295.51940 79.70890 0.79978 4.57942 41.25114 -15.61271 7.47424 -3.56178 -37.04667 -7.29054 3.70733 75.00725 4.95206 21.04252 13.00469 -3.49109 4.03956 -74.54674 1.60410 -9.43585 100.47544 8.76944 -20.89576 1.99853 1.91607 -8.26418 28.00658 -11.30186 1.77670 -23.65960 -4.75773 0.44513 6.58310 -16.96227 -11.56766 10.60450 13.80922 3.40333 -16.40310 -5.34042 -21.60678 -13.92378 55.89899 -52.25667 -44.78089 -29.45170 -7.37211 -12.96899 -11.24758 -4.39748 -22.54781 -16.63240 21.40250 -23.09374
305.40225 70.33332 1.05623 5.62238 41.84027 -13.10766 17.45128 7.86977 -40.70846 -5.11094 13.95334 88.27149 5.88103 25.70296 13.32397 -9.40287 0.39126 -83.04561 5.73403 -11.41539 116.21761 8.35593 -11.52978 9.81143 1.73028 -8.44457 24.77087 -8.63717 -0.66037 -28.25189 -3.96918 -0.29443 3.90608 -18.44457 -3.74963 19.95682 14.74901 -1.03749 -16.24871 3.40863 -10.90774 -12.13358 3.88827 -20.12478 -19.42273 -32.04617 -4.44979 -15.01663 -24.54721 4.07842 -24.34547 -1.81942 16.93222 -18.72113
314.44038 72.30555 0.89488 17.36542 45.52855 -21.44413 22.99335 15.48495 -23.92890 -17.14850 4.76812 66.74458 -18.62448 20.51794 38.06239 -16.69967 -9.15719 -34.01021 17.23861 -0.58103 140.12580 10.62404 -11.10070 18.90030 2.65095 -8.85699 13.96170 -11.88209 4.42264 3.69397 -9.56168 0.60353 8.21111 -20.05800 12.05515 29.70539 25.54457 15.62481 -0.75513 -18.84086 2.85530 -9.59608 32.49239 -66.15017 -22.28889 -49.10071 -7.76590 -7.93369 -21.59819 5.24185 -39.25207 -13.16057 16.31464 -47.06274
337.79503 62.30507 0.80134 38.11526 59.62179 -3.01069 2.56575 0.57340 -19.83652 -14.31637 0.66385 39.56511 -4.23800 13.94266 34.93876 -15.14692 -11.69863 -14.05023 10.56285 9.83998 109.25742 19.50801 -31.12672 60.66484 -0.41304 0.40608 10.44836 -19.71087 7.33647 -0.43078 -14.09270 8.12713 5.56557 -14.46440 -4.76028 25.28805 27.25435 2.15507 -9.05242 -2.74645 -15.48466 -17.96528 33.01895 -63.90916 -45.23087 -57.52220 4.39072 -20.84490 -20.48324 22.79026 -37.36600 -14.61174 15.97948 -55.01357
348.52033 33.59447 0.81782 -146.86282 55.90467 -177.90929 -1.16261 1.16305 -12.89056 0.05019 19.28703 22.21876 4.63870 12.79888 35.04348 13.07195 -3.73997 -3.53029 3.27676 -3.59149 32.16694 0.08820 6.72190 31.85587 5.20429 -1.91101 5.34474 -16.81193 -0.55742 -2.11883 -5.08197 2.44643 -0.23862 -11.86312 7.88164 39.83122 8.37147 -14.15763 -9.82923 -61.73474 -15.74296 11.64282 14.07579 -68.94304 28.90493 -43.85581 15.48392 -17.13152 3.18795 44.16300 -18.12450 -6.29607 34.30902 56.36062
351.12969 63.71255 0.76177 -153.01125 14.86052 171.34517 -6.25304 5.77448 -1.15624 1.02038 22.09701 20.96434 9.86295 19.12941 30.34642 19.11905 2.46574 -16.08634 -0.43246 -3.94417 48.83335 5.97958 -4.85062 31.55078 1.53819 -5.11806 9.97440 -17.07795 3.01394 4.05287 -6.96480 3.16751 4.29524 -18.05080 1.94306 24.32790 -3.09718 -18.81155 -3.87958 -62.56402 -19.04573 19.20923 -0.71209 -68.02668 34.38202 -29.53529 23.39703 -11.79428 15.14839 31.44036 -11.11631 -4.83538 11.43338 18.17664
349.41415 14.86421 0.80880 -152.08554 -37.49429 170.58434 -0.05294 10.46134 6.28212 -8.84222 -1.69338 21.02351 2.89256 12.00494 3.80908 3.33422 -1.67796 -46.46483 2.43080 -17.08100 88.76906 15.87795 -7.54129 15.79204 -4.94166 -10.31544 26.77278 -10.48124 -0.14080 1.34511 -6.51989 -3.75827 4.66896 -7.18015 2.38142 12.61184 -13.49705 -16.18232 3.16728 -39.76304 -14.99559 14.82816 -12.41693 -47.52497 23.97198 -6.84165 13.18289 -7.73004 18.34734 8.89325 -10.12580 -9.73805 14.77430 -35.04741
